<svg xmlns="http://www.w3.org/2000/svg" width="1511.811" height="755.906" viewBox="0 0 400 200" ><g transform="matrix(3.773585 0 0 3.773585 100 0)"><path d="M26.5 0C11.865 0 0 11.865 0 26.5S11.865 53 26.5 53 53 41.135 53 26.5 41.135 0 26.5 0zm24.777 26.5c0 13.683-11.092 24.777-24.777 24.777S1.723 40.183 1.723 26.5 12.817 1.723 26.5 1.723 51.277 12.817 51.277 26.5zM26.5 10.796v.86c8.183 0 14.843 6.658 14.843 14.843h.86c0-8.672-7.03-15.704-15.704-15.704h0m0 30.546c-8.183 0-14.843-6.658-14.843-14.843h-.86c0 8.672 7.03 15.704 15.704 15.704m12.7-26.884a23.04 23.04 0 0 1 1.169 1.377l5.36-3.38-1.013-1.25-3.395 2.23-.232.198.173-.25 1.5-2.97-1.06-1.053-2.993 1.5-.252.172.2-.23 2.246-3.37-1.26-1-3.403 5.32 1.362 1.142 3.204-1.65.205-.15-.15.204zM27.024 8.576l1.465-3.26.093-.3-.026.3.154 4.355 1.568.206-.238-6.45-2.2-.17-1.443 3.557-.05.264-.05-.264-1.44-3.557-2.2.17-.238 6.45 1.568-.206.154-4.355-.026-.3.093.3 1.465 3.26zm-11.848 5.14c.847-.886 1.326-1.9.48-2.886-.46-.53-1.234-.646-1.876-.385l-.064.025.02-.056c.095-.252.156-1.056-.534-1.6-.336-.27-.758-.37-1.185-.328-.795.08-1.407.62-3.073 2.464L7.27 12.943l4.575 4.3 3.33-3.537zm-5.97-1.054c.922-1.12 1.9-2.135 2.344-2.537.14-.127.293-.254.478-.303.3-.082.6.13.68.436s-.125.6-.34.84L10.093 13.5l-.887-.84zm1.792 1.688l2.3-2.412c.226-.232.37-.373.526-.448.2-.097.42-.117.616.012s.282.35.233.57c-.058.26-.272.5-.45.7l-2.307 2.452z" fill="#6f6f6f"/><g fill="#0066b1"><path d="M26.5 10.796V26.5H10.796A15.7 15.7 0 0 1 26.5 10.796z"/><path d="M42.204 26.5A15.7 15.7 0 0 1 26.5 42.204V26.5z"/></g></g></svg>