<svg xmlns="http://www.w3.org/2000/svg" width="400" height="200" viewBox="0 0 1512.6 756.44" ><path d="M897.7 741.32h-.1c-2.092.056-9.446.247-16.666 0-18.375 0-38.213-13.945-38.213-36.48 0-22.356 19.433-35.716 38.123-35.705.225-.045 9.345-.427 16.846-.014 18.78 0 38.224 13.36 38.224 35.716 0 22.536-19.837 36.48-38.224 36.48m17.926-86.277c-26.135-.585-52.686-.014-52.9 0-31.927 0-57.882 22.267-57.882 49.64 0 27.777 25.966 50.38 57.904 50.38.214.014 26.765.54 52.91 0 31.983 0 58.005-22.604 58.005-50.38-.01-27.102-25.505-48.908-58.028-49.64m339.72 98.748l32.545-.014-.01-47.66c0-27.833-24.787-49.66-56.41-49.66l-82.34-.014c-1.35 0-4.477.35-4.477 3.632l.01 90c0 2.418 1.743 3.69 3.453 3.69l34.412.014-.01-75.3c0-3.306 2.485-5.05 4.925-5.05l37.932-.022c10.492 0 26.01 9.626 26.01 30.262l-.01 46.3c0 .034.1 3.8 3.97 3.8m-686.93-78.034l50.797.014v-15.508c0-2.17-1.563-3.812-3.644-3.812H474c-2.305 0-3.688 1.912-3.688 3.756v15.553l33.838.014c12.696 0 21.22 10.953 21.22 21.176v53.147c0 1.754 1.542 3.7 3.734 3.7l34.333.014v-73.052c.012-2.755 2.238-4.993 4.982-4.993m-156.5 74.334c0 2.182 1.968 3.71 3.734 3.71h1.934l-.27.236c.978-.236 4.296-.236 15.823-.236l16.8-.014v-93.643c0-2.002-1.664-3.71-3.643-3.71h-30.656c-2.013 0-3.723 1.7-3.723 3.7zm265.53-48.075v-19.433c0-5.32 3.745-9.03 9.132-9.03h50.516c7.658 0 14.136 6.477 14.136 14.125 0 7.894-6.4 14.327-14.293 14.327h-59.5zm73.884 51.798h37.763c-.596-23.39-24.797-33.085-27.586-34.12l-.483-.18.033-1.327.495-.113c16.183-3.632 27.473-16.092 27.473-30.285 0-15.08-14.664-31.364-38.37-31.364l-91.337.023c-11.066 0-19.747 8.727-19.747 19.87v73.76c0 2.137 1.53 3.677 3.644 3.677l34.277.034-.023-34.524h32.376c28.766 0 40.608 20.917 41.485 34.547zm-397.1-64.708h36.965c-8.007-20.355-30.183-34.322-55.666-34.817l-11.358-.225c-17.802-.382-25.933-.562-41.52.225-18.218.922-29.677 5.105-40.912 14.945-10.965 9.615-17.003 22.3-17.015 35.772 0 27.844 24.617 49.683 57.252 50.83 22.368.8 24.763.822 54.103-.055 27.18-.82 46.67-13.214 55.08-34.794H354.22c-1.394 0-2.463.618-3.17 1.855-6.69 11.594-19.5 18.803-33.41 18.803-7.602.315-16.767 0-16.767 0-18.78 0-38.224-13.64-38.224-36.47l.01-.213c.124-22.694 19.51-36.245 38.303-36.256 2.148-.1 9.716-.338 16.655.014 13.697 0 26.855 7.3 33.5 18.623.236.393 1.18 1.765 3.138 1.765m770.06 47.198h-89.493c-3.014 0-5.128-2.013-5.128-4.892v-18.555h77.56V695.78h-77.56l-.034-16.936c0-.078-.056-1.9 1.315-3.328 1.024-1.057 2.52-1.597 4.465-1.597h88.863v-13.652c0-1.17-.326-2.08-1-2.7-1.225-1.18-3.25-1.114-3.373-1.102H995.46c-.394 0-3.8.1-3.8 3.823l.01 73.715c0 9.75 7.445 19.815 19.916 19.815l109-.014c.9 0 1.833-.393 2.553-1.068.742-.71 1.158-1.62 1.158-2.553l-.01-13.866m-27.823-115.07c-3.643-2.27-8.018-3.385-13.17-3.385-5.128 0-9.694 1.192-13.18 3.385-3.475 2.17-6.252 5.106-10.368 5.106-4.104 0-6.578-2.924-10.28-5.106-3.7-2.193-8.03-3.385-13.17-3.385s-9.514 1.125-13.18 3.385c-3.632 2.216-5.465 4.937-5.465 8.075 0 3.17 1.833 5.87 5.465 8.096 3.666 2.25 8.03 3.352 13.18 3.352 5.117 0 9.582-1.08 12.888-3.093 3.295-2.024 6.85-5.32 10.56-5.32 3.723 0 7.085 2.958 10.38 5.072 3.306 2.09 8.052 3.34 13.17 3.34 5.285 0 9.738-1.102 13.29-3.352 3.565-2.226 5.342-4.925 5.342-8.096-.01-3.15-1.822-5.86-5.465-8.075m-48.165-91.17c-54.26-46.523-215.47-178.9-292-178.9-76.56 0-237.64 132.3-291.94 178.85l-.63-27.473s-1.327-16.17 12.978-32.354c117.7-106.64 241.1-158.82 244.9-160.42 36.796-15.553 34.727-12.63 34.693-75.042 0 0 1.642-.1 2.687.014 51.82 4.7 191.14 139.9 273.6 231.32.147.158 16.272 18.825 16.272 38.505.023 9.222-.247 18.32-.55 25.505m-2.216-76.313c-8.76-9.716-215.08-237.46-289.78-237.46-74.67 0-281 227.75-289.76 237.45l-.01.014c-.855.956-20.996 23.976-20.996 50.82 0 20.893 1.383 41.923 1.406 42.125.045.967.528 9.852 5.465 12.27a5.748 5.748 0 0 0 2.553.595c1.833 0 3.88-.82 6.095-2.44 2.227-1.968 212.42-187.62 295.24-187.62 82.836 0 293.04 185.65 295.14 187.53 2.294 1.687 4.363 2.53 6.22 2.53a5.9 5.9 0 0 0 2.553-.584c4.925-2.407 5.41-11.302 5.454-12.303.01-.158 1.394-21.187 1.394-42.08 0-26.866-20.14-49.886-20.984-50.842m1.923-140.3c-54.204-46.467-215.25-178.72-291.7-178.72-76.482 0-237.4 132.17-291.65 178.67l-.63-27.44s-1.327-16.16 12.966-32.32c117.58-106.54 240.86-158.67 244.64-160.26 36.762-15.54 34.693-12.617 34.66-74.963 0 0 1.63-.102 2.687.014 51.764 4.69 190.95 139.77 273.3 231.1.146.157 16.26 18.803 16.26 38.47.01 9.2-.27 18.286-.562 25.46m-2.215-76.233c-8.76-9.706-214.87-237.23-289.5-237.23-74.593 0-280.73 227.52-289.46 237.22l-.012.014c-.854.955-20.984 23.953-20.984 50.774 0 20.872 1.395 41.88 1.406 42.08.045.968.53 9.84 5.454 12.26a5.739 5.739 0 0 0 2.553.584c1.833 0 3.87-.82 6.084-2.44 2.238-1.968 212.22-187.43 294.96-187.43 82.757 0 292.75 185.46 294.85 187.34 2.283 1.687 4.352 2.52 6.208 2.52.9 0 1.743-.192 2.552-.586 4.915-2.406 5.4-11.3 5.443-12.292.01-.157 1.395-21.164 1.395-42.036.01-26.82-20.107-49.818-20.962-50.774" fill="#6e6e6e" fill-rule="evenodd"/></svg>