<svg xmlns="http://www.w3.org/2000/svg" xmlns:xlink="http://www.w3.org/1999/xlink" width="400" height="200" viewBox="2.5 2.5 47.2 23.6" ><defs><radialGradient id="A" cx="-1672.4" cy="327.42" r="55" gradientTransform="matrix(1.3933 0 0 -1.0181 2385.2 367.2)" gradientUnits="userSpaceOnUse"><stop stop-color="#d3d1d2" offset="0"/><stop stop-color="#c9c7c8" offset=".5"/><stop stop-color="#8d8b8c" offset="1"/></radialGradient></defs><path d="M37.9 14.3c0 6.517-5.283 11.8-11.8 11.8s-11.8-5.283-11.8-11.8S19.583 2.5 26.1 2.5s11.8 5.283 11.8 11.8" fill="#231f20"/><path d="M37.486 14.3A11.39 11.39 0 0 1 26.1 25.686 11.39 11.39 0 0 1 14.714 14.3 11.39 11.39 0 0 1 26.1 2.914 11.39 11.39 0 0 1 37.486 14.3" fill="#bdbcbc"/><path d="M16.943 8.565c0 .01-1.263.202-1.262.208.006.03-.065 6.498 1.088 6.173.76-.358.35-4.572.35-4.005 0 .8.077 2.086.38 4.12l.357 3.072c-.37-.36-.947-.522-.947-.522l.817 2.763.602-.006.017-.194c.016 0 .594.042.992.77 2.3 4.208 8.353 2.6 6.768 2.68l2.494-.3c-7.305 1.25-8.676-2.12-9.043-2.792-.23-.337-.892-.7-1.308-.49 0 0 1.016.04.97-.23.318.31-.79-.498-.79-.498l.056.175c.172.017.095-.168.275-.2l-.224-.102c-.03-.035.125-.22-.423-3.895-.3-2.02-.24-3.592-.24-4.374 0-.758-.05-.812-.05-.818l-.445-.3-.085-.018a1.265 1.265 0 0 1-.297-.093.316.316 0 0 0 .043-.184c0-.087-.01-.2-.02-.346l-.035-.66c-1.42 12.312.545-1.378.304-1.115l.138-.156c.668-.772 3.002-2.573 9.025-2.714 6.37-.15 6.4 2.177 6.42 2.21l1.65.818c-.02-.035-2.164-3.592-8.633-3.44-6.096.142-7.905 2.23-8.586 3.016l-.135.153c-.28.305-.6.308-.6.758 0 .24-.27.56-.253.76.786 1.38.515.698.63-.24zm17.42-.592c-.14.06-.118.285-.09.597.02.232.046.496 0 .68l.16.04c.053-.212.027-.5.004-.736-.014-.156-.036-.392-.003-.434.004.005.05 1.76.41 2.178.575.665.288.282.288 1.442 0 .57.428 1.238.41 1.47-.213-.27-.274-.963-.328-1.586-.063-.724-.117-1.35-.375-1.558.318-.278-.786-1.737-.7-.75.05.346-.118-.775-.363-1.157-.752-1.17-2.3-2.537-7.72-2.724-4.962-.172-7.42 1.864-8.052 2.485l.082-.14-.807-.416-.228 2.414.345-.545.568-1.033c.087-.103 2.438-2.795 8.087-2.6 6.02.2 7.12 1.92 7.6 2.65.225.352.285.745.337 1.092.07.458.135.9.648.82a.15.15 0 0 1 .122.034c.204.164.26.814.315 1.443.072.833.14 1.62.523 1.81l.107.054.01-.12c.015-.152.344-3.75-.674-4.93-.4-.464-.55-.528-.656-.48zm2.178 2.982a6.76 6.76 0 0 0-.462-1.39c.116.267.3.743.462 1.4zm-.462-1.4a5.252 5.252 0 0 0-.072-.16l.072.16zm-.513-1.2c1.346 1.298 1.104 4.647 1.104 4.647l-.655-.76v3.245l-.453.912c-.806 4.3-2.72 8.113-10.224 7.9s-8.662-4.208-9.367-8 .302-7.96.302-7.96c-2.216 6.59.403 11.56.403 11.56s1.26 4.665 9.015 4.614 8.965-4.36 8.965-4.36l.14 1.087s1.802-1.648 2.356-5.096c.28-1.745-.804-7.033-1.587-7.787zm.44 1.03l-.04-.085.042.085" fill="#231f20"/><g transform="matrix(.03959 0 0 -.03959 -6.813 38.94)"><defs><path id="B" d="M1094.3 667.16l.332-2.984c3.268-32.552 4.767-23.84-.332 2.984zM607.45 803.74l44.403 41.494c.001 0-24.667-13.828-44.403-41.494zm-6.894-317.06c14.668-29.588 29.1-48.843 29.1-48.843s-13.754 20.747-29.1 48.843zm480.5 284.37l-4.82 14.047 43.05-15.304-41.65 21.347 42.3 25.102-46.488-19.06 7.44 46.485-15.093-44.904-10.94 3.1c-22.94 34.107-54.46 51.176-94.12 70.2-73.72 35.372-171.98 25.992-171.98 25.992s116-1.476 204.73-54.07c18.327-10.862 33.605-25.925 46.287-42.948l-19.15-1.056 21.95-2.8a219.33 219.33 0 0 0 5.991-8.89l-25.48-14.72 27.5 11.54a264.99 264.99 0 0 0 8.052-13.976l-10.87-34.028 12.847 30.285c19.042-36.827 29.072-75.95 33.7-100.23-5.33 50.816-14.63 87.04-27.77 114.2l.96 2.256s48.1-62.868 39.47-165.98-33.3-139.57-57.972-164.72l-1.228 12.577s-35.763-106.9-213.36-104.37-191.17 60.35-191.17 60.35l-9.866 5.04s-41.93 32.682-67.832 119.45c-25.903 86.76-1.235 157.18-1.235 157.18s-13.565-57.84-3.698-116.94c5.112-30.626 23.46-69.325 39.968-99.53-12.117 24.43-24.402 55.908-28.867 89.47-9.872 74.188-7.403 124.48 4.93 162.2s19.735 54.07 19.735 54.07-51.798-60.36-53.032-188.6c-1.234-128.26 107.3-216.27 155.4-235.14s199.8-44.004 291.06 20.117c91.27 64.13 85.1 80.47 114.7 139.58 29.6 59.097 17.272 178.55-23.428 242.68zm-21.6 23.52c-.1.164-.2.328-.3.484l.922-.116-.632-.368zm4.24-7.57l-1.57 2.948 2.9 1.22zm-434.03 5.425c7.396 12.575 45.63 35.208 45.63 35.208s-20.97-12.58-44.398-40.24c-23.438-27.66 8.634 2.516 51.802 31.44 43.164 28.917 103.6 26.4 103.6 26.4s-19.73 15.1-94.965-8.803l72.767 31.437s-111-23.9-143.07-69.156 1.23-18.86 8.634-6.285zm371.26 3.976c13.608-14.132 23.4-26.608 23.4-26.608s-4 12.7-23.4 26.608zm-421.83-185.05c13.566-133.28 70.302-189.87 70.302-189.87s43.164-42.75 177.6-49.034 177.6 46.522 181.3 55.324-17.275-5.026-23.44-2.5c-6.165 2.5 19.738 49.038 19.738 49.038-13.57-50.297 7.4 7.543 20.962 1.253 13.57-6.28-27.133-22.63-13.562-35.206 13.562-12.575 41.92 76.702 60.43 116.94 18.5 40.235 12.33 81.73 11.1 108.14s-7.4 37.723-7.4 37.723l-3.7-62.876s2.47-8.796-17.27 35.216l-16.03 42.75c-11.1-196.16-55.507-270.35-55.507-270.35s-16.03-49.032-145.53-50.293c-129.5-1.25-148 32.7-148 32.7-41.93 55.324-66.598 173.52-60.426 251.48 6.164 77.96 0 99.342 55.496 123.23s139.36 26.407 139.36 26.407c100.73 2.832 151.38-17.074 176.4-35.005a314.52 314.52 0 0 1-9.895 9.851c-18.5 17.6-189.93 54.07-279.96 18.864s-96.2-69.156-90.032-172.27 38.235-188.6 60.434-221.3 101.14-42.764 101.14-42.764c-107.3 2.518-119.63 59.093-125.8 69.163-6.168 10.06-24.668 30.18-28.367 13.828-3.698-16.344-36.86 83.6-30.7 88.64s44.257-50.923 44.257-50.923-13.566 27.668-27.132 105.62 7.397 116.94-6.17 119.45 16.87-115.03-21.984-120.26c-11.07-1.492-1.884 103.96 3.055 125.34 4.93 21.38 10.3 27.62 10.3 27.62s-34.537-22.64-20.972-155.92"/></defs><clipPath id="C"><use xlink:href="#B"/></clipPath><g clip-path="url(#C)"><linearGradient id="D" x1="547.78" x2="828.39" y1="353.63" y2="621.86" gradientUnits="userSpaceOnUse"><stop stop-color="#8c8c8c" offset="0"/><stop stop-color="#464646" offset=".5"/><stop stop-color="#fff" offset=".75"/><stop stop-color="#fff" offset="1"/></linearGradient><path d="M1094.3 667.16c.23-.334 0 0 0 0zM607.45 803.74l44.403 41.494c.001 0-24.667-13.828-44.403-41.494zm-6.894-317.06c14.668-29.588 29.1-48.843 29.1-48.843s-13.754 20.747-29.1 48.843zm480.5 284.37l-4.82 14.047 43.05-15.304-41.65 21.347 42.3 25.102-46.488-19.06 7.44 46.485-15.093-44.904-10.94 3.1c-22.94 34.107-54.46 51.176-94.12 70.2-73.72 35.372-171.98 25.992-171.98 25.992s116-1.476 204.73-54.07c18.327-10.862 33.605-25.925 46.287-42.948l-19.15-1.056 21.95-2.8a219.33 219.33 0 0 0 5.991-8.89l-25.48-14.72 27.5 11.54a264.99 264.99 0 0 0 8.052-13.976l-10.87-34.028 12.847 30.285c19.042-36.827 29.072-75.95 33.7-100.23-5.33 50.816-14.63 87.04-27.77 114.2l.96 2.256s48.1-62.868 39.47-165.98-33.3-139.57-57.972-164.72l-1.228 12.577s-35.763-106.9-213.36-104.37-191.17 60.35-191.17 60.35l-9.866 5.04s-41.93 32.682-67.832 119.45c-25.903 86.76-1.235 157.18-1.235 157.18s-13.565-57.84-3.698-116.94c5.112-30.626 23.46-69.325 39.968-99.53-12.117 24.43-24.402 55.908-28.867 89.47-9.872 74.188-7.403 124.48 4.93 162.2s19.735 54.07 19.735 54.07-51.798-60.36-53.032-188.6c-1.234-128.26 107.3-216.27 155.4-235.14s199.8-44.004 291.06 20.117c91.27 64.13 85.1 80.47 114.7 139.58 29.6 59.097 17.272 178.55-23.428 242.68zm-21.6 23.52c-.1.164-.2.328-.3.484l.922-.116-.632-.368zm4.24-7.57l-1.57 2.948 2.9 1.22zm-434.03 5.425c7.396 12.575 45.63 35.208 45.63 35.208s-20.97-12.58-44.398-40.24c-23.438-27.66 8.634 2.516 51.802 31.44 43.164 28.917 103.6 26.4 103.6 26.4s-19.73 15.1-94.965-8.803l72.767 31.437s-111-23.9-143.07-69.156 1.23-18.86 8.634-6.285zm371.26 3.976c13.608-14.132 23.4-26.608 23.4-26.608s-4 12.7-23.4 26.608zm-421.83-185.05c13.566-133.28 70.302-189.87 70.302-189.87s43.164-42.75 177.6-49.034 177.6 46.522 181.3 55.324-17.275-5.026-23.44-2.5c-6.165 2.5 19.738 49.038 19.738 49.038-13.57-50.297 7.4 7.543 20.962 1.253 13.57-6.28-27.133-22.63-13.562-35.206 13.562-12.575 41.92 76.702 60.43 116.94 18.5 40.235 12.33 81.73 11.1 108.14s-7.4 37.723-7.4 37.723l-3.7-62.876s2.47-8.796-17.27 35.216l-16.03 42.75c-11.1-196.16-55.507-270.35-55.507-270.35s-16.03-49.032-145.53-50.293c-129.5-1.25-148 32.7-148 32.7-41.93 55.324-66.598 173.52-60.426 251.48 6.164 77.96 0 99.342 55.496 123.23s139.36 26.407 139.36 26.407c100.73 2.832 151.38-17.074 176.4-35.005a314.52 314.52 0 0 1-9.895 9.851c-18.5 17.6-189.93 54.07-279.96 18.864s-96.2-69.156-90.032-172.27 38.235-188.6 60.434-221.3 101.14-42.764 101.14-42.764c-107.3 2.518-119.63 59.093-125.8 69.163-6.168 10.06-24.668 30.18-28.367 13.828-3.698-16.344-36.86 83.6-30.7 88.64s44.257-50.923 44.257-50.923-13.566 27.668-27.132 105.62 7.395 116.94-6.172 119.45 16.874-115.03-21.98-120.26c-11.07-1.492-1.884 103.96 3.055 125.34 4.93 21.38 10.3 27.62 10.3 27.62s-34.537-22.64-20.972-155.92" fill="url(#D)"/></g></g><radialGradient id="E" cx="-2079.4" cy="525.41" r="98" gradientTransform="matrix(.08 0 0 -.08551 192.45 59.502)" gradientUnits="userSpaceOnUse"><stop stop-color="#e60a47" offset="0"/><stop stop-color="#7c0626" offset="1"/></radialGradient><path d="M26.825 22.873c.008 0 1.224-.06 2.284-.3.92-.207 1.736-.604 1.744-.607l.006-.004c.005-.002.46-.198.738-.465a1.84 1.84 0 0 0 .413-.629c.006-.015.502-1.337.877-2.748.345-1.3.582-2.735.584-2.75s.3-1.47.37-3.013c.068-1.297-.066-2.77-.068-2.784s-.07-.883-.42-1.454c-.314-.512-.922-.764-.928-.767l-.01-.006c-.007-.004-.712-.356-2.05-.647-1.067-.232-2.55-.398-3.777-.422-1.404-.028-2.91.07-4.03.262-1.343.23-2.216.57-2.224.574l-.007.003-.008.002c-.01.002-.88.24-1.336.822-.465.6-.54 1.56-.54 1.57v.005a17.42 17.42 0 0 0-.1 1.871 14.499 14.499 0 0 0 .011.566c.052 1.365.29 2.878.293 2.893l.695 3.287c.273 1.1.63 2.092.633 2.1l.002.007.002.008c.001.005.122.503.32.85a1.62 1.62 0 0 0 .427.482l.008.006c.002 0 .174.14.438.285l.728.352c.03.01.927.355 2.1.51 1.237.163 2.803.137 2.818.136z" fill="url(#E)" stroke="#6d0115" stroke-width=".16"/><g fill="#6d0115"><path d="M21.46 21.922l-.083-.04-.043-.018-.01-.054a43.81 43.81 0 0 1-.641-5.909l-.114-8.766.11-.036v.132l.114 8.665c.107 2.65.44 4.813.652 5.96l.013.064zm.35.15l-.12-.05-.01-.082a67.97 67.97 0 0 1-.558-6.216l-.09-8.73.112-.032v.108l.09 8.65L21.8 22l.01.07zm2.618-15.55l.134 16.196-.1-.012-.003-.227-.136-16.043.112-.01.002.094zm1.45-.045l.054 16.308-.113.001v-.256l-.053-16.166h.11l.003.113zm.556.015l-.08 16.285-.113.003.002-.176.077-16.24.116.001-.002.127zm1.505 16l.293-7.297.015-8.64-.006-.112.134.012.006.143-.016 8.598-.302 7.46-.135.016.01-.18zm3.802-1.3a1.597 1.597 0 0 1-.176.2l.054-.284a44.126 44.126 0 0 0 .683-5.258l.2-8.376a2.9 2.9 0 0 1 .132.077v.258l-.198 8.05a44.074 44.074 0 0 1-.672 5.197l-.024.135zm1.286-4.366a43.72 43.72 0 0 0 .246-2.52l.12-5.663-.003-.24a3.01 3.01 0 0 1 .138.377l.003.222-.125 5.313a41.371 41.371 0 0 1-.092 1.125l-.04.402a63.865 63.865 0 0 1-.314 1.487l.067-.504zm-1.76 4.8l-.15.096.04-.228a49.27 49.27 0 0 0 .707-6.045L32 7.494l-.005-.245a3.411 3.411 0 0 1 .133.05l.007.228-.14 7.93a49.436 49.436 0 0 1-.688 5.948l-.042.222zm-1.642.563l.392-6.368.096-8.843-.004-.26.138.028V7l-.097 8.826a111.05 111.05 0 0 1-.39 6.35l-.013.14-.138.04.016-.166zm-.462.108l.384-5.303c.114-3.563.1-8.056.085-10.136l-.003-.232.13.023.005.242-.085 10.106a62.939 62.939 0 0 1-.379 5.264l-.02.18-.14.033.023-.177zm-.375.08a97.82 97.82 0 0 0 .32-5.536c.103-3.46.076-7.84.052-10.122l-.003-.163.135.02.003.218c.024 2.305.05 6.63-.053 10.05a97.594 97.594 0 0 1-.316 5.492l-.017.2-.137.027.016-.176zm-.435.087a166.59 166.59 0 0 0 .286-6.395c.084-3.574.088-7.56.084-9.427l-.003-.14.135.015.002.158-.084 9.397a166.276 166.276 0 0 1-.283 6.354l-.01.18-.136.022.01-.164zm-.46-15.884l-.086 9.94a256.488 256.488 0 0 1-.172 5.954l-.01.236-.114.01.01-.2.173-5.993.088-10.097.113.008zm-.55-.088l.018 8.093-.134 8.154-.113.007.005-.164.13-8-.018-8.195.112.005v.1zm-.437-.007l.04 8.656-.122 7.62-.112.005.004-.184.118-7.44-.04-8.767.112.003.002.108zm-3.937 15.97l-.116-.03-.006-.073a97.727 97.727 0 0 1-.36-5.944c-.1-3.4-.066-7.647-.042-9.648v-.088l.112-.02v.088c-.024 1.992-.058 6.255.042 9.664.078 2.7.27 4.992.363 5.978l.008.07zm-.755-.23l-.118-.043-.01-.083c-.17-1.42-.5-4.5-.604-7.747-.088-2.755-.012-5.83.04-7.376l.001-.113.113-.027-.002.098c-.05 1.53-.13 4.635-.04 7.416.105 3.302.443 6.412.6 7.8l.01.076zm-3.17-5.664a32.092 32.092 0 0 1-.217-1.155l-.02-.3a52.252 52.252 0 0 1-.165-3.049 100.67 100.67 0 0 1 .002-3.076l-.005-.106a3.394 3.394 0 0 1 .125-.39l-.01.595v2.976c.02 1.198.128 2.658.23 3.806l.06.69zM20 20.096l-.257-.785-.068-.392c-.173-1.026-.328-2.117-.37-2.954-.227-2.784-.24-5.998-.224-7.71l.002-.314a1.758 1.758 0 0 1 .11-.11v.298c-.016 1.672-.01 4.976.223 7.827.05.977.253 2.298.46 3.46l.125.68zm.548.585a38.931 38.931 0 0 1-.658-4.696c-.226-2.952-.218-6.427-.196-8.146l.002-.355a2.49 2.49 0 0 0-.114.063v.296c-.022 1.723-.03 5.197.197 8.152.146 1.895.426 3.555.655 4.687l.143.672a1.362 1.362 0 0 0 .078.081c.02.02.04.038.063.057l-.17-.8zm2.016 1.6a67.777 67.777 0 0 1-.363-5.091c-.125-3.744-.133-8.416-.13-10.357v-.095l-.113.023.003.083.13 10.35a68.56 68.56 0 0 0 .356 5.032l.008.082.116.036-.006-.064z"/><path d="M20.206 7.266l-.114.045-.002.167.053 7.536c.197 3.255.605 5.562.806 6.553l.02.098a3.513 3.513 0 0 0 .132.078l-.026-.12c-.194-.94-.618-3.277-.82-6.616-.14-2.3-.088-5.84-.052-7.57l.004-.175m2.83-.683l-.113.017.002.093.015 8.57.357 7.268.114.022-.012-.166-.348-7.127a317.626 317.626 0 0 1-.014-8.574l-.001-.103zm.473-.06l-.114.013v.09a202.256 202.256 0 0 0-.01 7.61l.338 8.2.01.175.115.018-.013-.2a208.35 208.35 0 0 1-.338-8.204l.012-7.714zm.456-.05l-.112.01-.001.093.01 8.188.186 7.894.112.016-.007-.22-.18-7.7-.008-8.29zm.966-.076l-.116.007.003.062.108 16.3.112.01-.002-.195-.105-16.174zm.47-.02l-.114.003.003.108.027 16.297.062.003.05.001v-.277L25.4 6.373zm4.602 15.665l.577-7.513-.03-7.53-.008-.18.136.033.007.186.028 7.496a96.509 96.509 0 0 1-.576 7.514l-.02.155a6.682 6.682 0 0 1-.14.046l.026-.207zm.56-.194l.496-6.418.107-8.448-.135-.04.004.165-.1 8.315a104.826 104.826 0 0 1-.5 6.456l-.024.21.14-.064.024-.178zm.4-.258l.493-4.987.22-9.334-.003-.125-.132-.044.002.125-.22 9.37a53.93 53.93 0 0 1-.512 5.106l-.03.204a6.873 6.873 0 0 0 .146-.075l.036-.24zm1.17-1.368l.267-.804.057-.368a62.73 62.73 0 0 0 .502-4.39c.17-2.195.133-4.87.086-6.478l-.01-.304a1.854 1.854 0 0 0-.14-.129l.01.248-.08 6.654a63.082 63.082 0 0 1-.59 4.953l-.103.618z"/></g><path d="M22.696 15.42v-1.16h-.993l.003-2.915h1.296l-.007-1.17H20.3l.244 8.958h1.185l-.026-3.715zm.77-5.244l.15 8.96h1.223l.024-8.96zm7.856 8.96l.25-7.83h.96l-.008-1.13H29.2v1.13h.966l-.027 7.83zm-4.614-4.814l.014-3.043h.683c.3.678.508 1.574.664 3.043zm-1.09 4.813h1.132l.013-3.705h1.357c.107.654.133 2.673.14 3.704h1.098c.103-4.574-.22-7.16-1.108-8.96h-2.735l.103 8.96z" fill="#1a1a1a"/><g transform="matrix(.11146 0 0 .13236 20.439 10.014)"><path d="M21.547 30.87h-8.934l.033-22.026H24.3L24.247 0H0l2.192 67.7h10.654l-.233-28.07h8.934zM41.032 0H28.46l1.348 67.7H40.8zm47.444 67.7H99.12l2.26-59.163H110L109.934 0h-29.9v8.538h8.7z" fill="url(#A)"/><radialGradient id="F" cx="-1672.4" cy="327.42" r="54.998" gradientTransform="matrix(1.3933 0 0 -1.0181 2385.2 367.2)" gradientUnits="userSpaceOnUse"><stop stop-color="#d3d1d2" offset="0"/><stop stop-color="#c9c7c8" offset=".5"/><stop stop-color="#8d8b8c" offset="1"/></radialGradient><path d="M57.624 31.33l.12-22.993h6.143c2.785 5.12 4.574 11.893 5.977 22.993zM47.808 67.7h10.186l.114-28h12.204c.96 4.94 1.194 20.2 1.252 28h9.88c.93-34.558-1.965-54.092-9.967-67.7h-24.6l.932 67.7z" fill="url(#F)"/></g></svg>