<svg xmlns="http://www.w3.org/2000/svg" width="400" height="200" viewBox="0 0 105.83 52.917" ><path d="M52.932 46.477c29.214 0 52.902-8.95 52.902-20.003S82.146 6.44 52.932 6.44C23.688 6.44 0 15.42 0 26.474s23.688 20.003 52.932 20.003zM47.82 22.175s.338.03.845-.552c.214-.2.552-.814.5-1.228-.045-.2-.137-.446-.383-.4-.507.093-.814.338-.952.845-.17.552-.107.92 0 1.335zm25.115 4.775c-1.197-.138-2.686.9-3.93 2.395-.614.752-1.258 2.18-1.35 3.04-.14.844.092 1.703.4 1.934.307.245 1.673.967 3.79-1.183 1.198-1.197 2.35-3.147 2.35-3.147l-.37-.107c.722-1.32.584-2.763-.9-2.932zm-7.092 2.84c2.318-2.195 3.608-4.483 6.954-4.437 2.01.03 2.533 1.627 2.87 2.318l4.406-7.445h2.686l-7.292 12.94c-.138.276-.475.783-.445 1.198.062.644.9.475.584.475 1.458-.076 4.16-2.87 4.805-3.546.138-.184.383-.49.506-.49.138 0 .415.138.415.353 0 .138-.307.645-.538.952-1.366 1.704-3.623 4.33-6.186 4.406-1.26 0-1.735-.522-1.904-1.505-.583.507-2.564 1.397-4.575 1.397-1.673-.03-2.364-1.028-2.7-1.81-.308-.645-.446-1.597-.2-2.564-.92.49-1.78.553-3.01.522-1.428-.03-2.318-.7-2.763-2.364l-3.378 6.248h-2.9l3.715-6.3c.476-.86.722-1.535.9-2.256.108-.4-.2-.783-.644-.814-.476 0-1.26.476-2.01 1.198 0 0-1.92 2.04-3.316 4.13-1.336 1.98-3.623 4.22-6.1 4.22-1.812 0-3.454-.982-3.792-2.9 0 0-.17.445-1.766 1.366-.138.076-.5.276-.583.215-.307-.277-.476-.614-.522-.86.108.03.307-.138.967-.645 1.26-.952 1.535-1.704 1.535-1.704.307-.66.845-1.673 1.23-2.395 1.028-2.04 2.794-4.13 5.695-4.237.476 0 .614.215.722.384.276.2.168.614.168.614-2.057.307-3.454 1.505-4.298 2.656-.522.752-1.06 1.98-1.167 2.87-.2 1.536.507 2.564 1.566 2.795 1.98.307 3.623-1.12 4.928-3.347.338-.568.568-2.072.568-2.9a3.28 3.28 0 0 0-.783-2.011c0-.568.384-.952.83-.952.123 0 .26 0 .4.138.7.675 1.058 1.98 1.058 2.963 0 .353 0 .7-.06 1.028 1.428-1.734 3.24-3.99 4.636-4.436.277-.138.553-.138.814-.138 2.564-.062 2.226 2.256 2.226 2.256 1.366-1.566 2.318-2.15 3.577-2.088 1.366.077 1.842 1.03 1.842 1.78-.03.9-.676 1.904-1.796 1.95-.998 0-1.58-.49-1.888-1.366-.645.23-.952.675-1.1 1.565-.2 1.12.644 2.01 1.75 2.01 1.873 0 2.686-.813 3.377-1.427zM47.99 22.928c0 .368.507.675.952.72-.092.37-.062.537-.23.507-1.03 0-1.443-.998-1.443-.998-1.367.246-2.687.414-5.39.7-6.785 10.992-8.904 12.804-13.08 12.804-2.962 0-5.587-1.95-5.664-5.435-.03-2.118 1.673-4.712 4.85-5.495.384 0 .507.138.507.337 0 .14-.123.307-.43.446-.92.353-2.533 2.15-2.533 3.822 0 1.274.783 2.67 2.118 2.978.37.092.722.062 1.06.062 3.3 0 7.03-3.715 11.053-9.38-.645.03-3.408.338-4.1 1.12-.306.246-.506.108-.567-.168 0-.062.092-.307.2-.446 1.1-1.228 4.36-1.504 5.157-1.596 2.917-4.498 6.648-7.37 7.707-7.6l-.06-.014c-2.64-.615-5.02-1.136-6.893-1.136-6.6 0-9.534 2.84-9.395 5.434.076 1.06.92 1.735 2.18 1.504 1.366-.245 3.285-1.535 3.76-2.67.108-.23.37-.262.476-.2.2.17.14.414.14.414-.17 1.32-2.226 5.02-5.773 5.02-1.98 0-3.3-1.842-3.27-3.654.03-3.377 3.485-6.8 11.975-6.8 1.612 0 3.423.138 5.388.476 2.288.414 7.998 1.366 12.635 1.443 1.704 0 3.9.06 5.664-.215 1.873-.307 1.474-.37 2.226-.37.676 0 .676.277.676.553 0 1.1-3.823 3.162-7.062 3.162-4.774 0-9.733-2.164-12.312-2.855a.358.358 0 0 1 .092.43c-.03.077-.368.445-.506.552-.69.615-3 2.12-5.542 6.387 2.057-.108 4.436-.522 4.436-.522s-.123-.43-.123-.814c.093-1.474.952-2.35 2.042-2.18.614.092 1.03.614 1.03 1.152 0 .583-.445 1.443-.9 1.842a5.49 5.49 0 0 1-1.06.69zm4.943 20.095c27.203 0 49.294-7.4 49.294-16.55 0-9.118-22.1-16.517-49.294-16.517-27.233 0-49.248 7.4-49.248 16.518 0 9.15 22.015 16.55 49.248 16.55zm0 1.412c-28.047 0-50.844-7.998-50.844-17.96 0-9.933 22.797-18.023 50.844-18.023 28.124 0 50.9 8.1 50.9 18.023 0 9.963-22.766 17.96-50.9 17.96z" fill="#004186" fill-rule="evenodd" image-rendering="optimizeQuality" shape-rendering="geometricPrecision"/></svg>