<svg xmlns="http://www.w3.org/2000/svg" xmlns:xlink="http://www.w3.org/1999/xlink" viewBox="0 0 400 200" ><linearGradient id="A" x1="125" x2="275" y1="37.188" y2="162.813" gradientUnits="userSpaceOnUse"><stop stop-color="#fff" offset="0"/><stop stop-color="#e7e8e6" offset=".1"/><stop stop-color="#cdd0d0" offset=".1"/><stop stop-color="#b5bbbd" offset=".2"/><stop stop-color="#a5acaf" offset=".2"/><stop stop-color="#9ba3a7" offset=".3"/><stop stop-color="#98a0a4" offset=".3"/><stop stop-color="#828a8f" offset=".4"/><stop stop-color="#667075" offset=".5"/><stop stop-color="#535c63" offset=".6"/><stop stop-color="#475158" offset=".7"/><stop stop-color="#434d54" offset=".8"/><stop stop-color="#475157" offset="1"/></linearGradient><path d="M297.81 100c0 54.062-43.75 97.812-97.812 97.812s-97.812-43.75-97.812-97.812 43.75-97.812 97.812-97.812S297.81 45.938 297.81 100zM199.998 8.125A91.625 91.625 0 00108.123 100c0 50.938 41.25 91.875 91.875 91.875 50.938 0 91.875-41.25 91.875-91.875a91.625 91.625 0 00-91.875-91.875z" fill="url(#A)"/><linearGradient id="B" x1="129.688" x2="270.313" y1="40.938" y2="159.063" gradientUnits="userSpaceOnUse"><stop stop-color="#0b1f2a" offset="0"/><stop stop-color="#333f47" offset=".2"/><stop stop-color="#777f84" offset=".5"/><stop stop-color="#81898d" offset=".5"/><stop stop-color="#b3b8b8" offset=".7"/><stop stop-color="#d2d5d3" offset=".8"/><stop stop-color="#dee0dd" offset=".8"/><stop stop-color="#fbfbfb" offset="1"/></linearGradient><path d="M200 8.125A91.625 91.625 0 00108.125 100c0 50.938 41.25 91.875 91.875 91.875 50.938 0 91.875-41.25 91.875-91.875A91.625 91.625 0 00200 8.125zm0 177.81c-47.5 0-85.938-38.438-85.938-85.938S152.5 14.059 200 14.059s85.938 38.438 85.938 85.938S247.5 185.935 200 185.935z" fill="url(#B)"/><linearGradient id="C" x1="234.291" x2="165.853" y1="194.084" y2="5.959" gradientUnits="userSpaceOnUse"><stop stop-color="#e1e3e1" offset="0"/><stop stop-color="#c1c5c4" offset=".1"/><stop stop-color="#9ba1a2" offset=".3"/><stop stop-color="#7d8487" offset=".5"/><stop stop-color="#687074" stop-opacity="0" offset=".7"/><stop stop-color="#5b6469" stop-opacity="0" offset=".8"/><stop stop-color="#576065" stop-opacity="0" offset="1"/></linearGradient><path d="M200 197.8c54.062 0 97.812-43.75 97.812-97.812S254.062 2.186 200 2.186s-97.812 43.75-97.812 97.812S145.938 197.8 200 197.8zM200 0c55 0 100 45 100 100s-45 100-100 100-100-45-100-100S145 0 200 0z" fill="url(#C)" opacity=".4"/><use transform="matrix(3.125 0 0 3.125 100 0)" fill="#fff" xlink:href="#P"/><linearGradient id="D" x1="156.875" x2="243.125" y1="25.313" y2="174.688" gradientUnits="userSpaceOnUse"><stop stop-color="#e1e3e1" offset="0"/><stop stop-color="#c1c5c4" offset=".1"/><stop stop-color="#9ba1a2" offset=".3"/><stop stop-color="#7d8487" offset=".5"/><stop stop-color="#687074" stop-opacity="0" offset=".7"/><stop stop-color="#5b6469" stop-opacity="0" offset=".8"/><stop stop-color="#576065" stop-opacity="0" offset="1"/></linearGradient><path d="M200 186.25c-23.125 0-44.688-9.063-60.938-25.312S113.75 123.126 113.75 100s9.063-44.688 25.312-60.938S176.874 13.75 200 13.75s44.688 9.062 60.938 25.312S286.25 76.874 286.25 100s-9.063 44.688-25.312 60.938S223.126 186.25 200 186.25zm0-2.5c22.188 0 43.438-8.75 59.062-24.375 15.938-15.938 24.375-36.875 24.375-59.062s-8.75-43.438-24.375-59.062C243.124 25.313 222.187 16.876 200 16.876s-43.438 8.75-59.062 24.375C125 56.563 116.25 77.813 116.25 100s8.75 43.438 24.375 59.062C156.563 175 177.813 183.75 200 183.75z" fill="url(#D)" opacity=".4"/><path d="M275.94 140.62l-61.875-49.062-14.062-80.312a5.344 5.344 0 0 0-2.813 2.5l-10 78.125-62.188 47.812-1.875 2.5c-.312.625-.312 1.563-.312 2.5L199.7 113.12l76.875 31.562c.625-1.563 0-3.125-.625-4.063z" fill="#fff"/><path d="M200.62 102.5l-.625 14.375 70.625 28.438c2.5 1.25 4.375.625 6.25-.625l-75.312-42.5c-.313-.313-.938 0-.938.312z" fill="#565f64"/><linearGradient id="E" x1="239.063" x2="233.75" y1="123.125" y2="131.875" gradientUnits="userSpaceOnUse"><stop stop-color="#27343c" offset="0"/><stop stop-color="#00111e" stop-opacity="0" offset="1"/></linearGradient><path d="M200.62 102.5s4.063 7.188 8.75 12.188c6.563 7.188 15.312 12.188 15.312 12.188l45.938 18.438c2.5 1.25 4.375.625 6.25-.625l-75.312-42.5c-.313-.313-.938 0-.938.313z" fill="url(#E)"/><path d="M276.56 141.88c0-.313-.313-.625-.625-1.25L211.56 93.442l-8.75 5.625s.625.313.938 0c.937-.313 2.812-.625 4.687 0 1.563.625 68.125 43.125 68.125 43.125z" fill="#a4aaae" fill-opacity=".6"/><path d="M274.38 139.06l-60-47.5-2.813 1.875 64.375 47.5c-.312-.625-.937-1.25-1.562-1.875z" fill="#333e46"/><use transform="matrix(3.125 0 0 3.125 100 0)" fill="#565f64" xlink:href="#Q"/><path d="M196.25 16.562v4.063l-6.875 69.06c0 .938.313 1.875 1.25 2.5l4.063 3.125 2.812-76.25.313-5.937c-.938.625-1.25 1.875-1.563 3.437zm-3.75 80l-3.75-3.125-63.438 45.938s-1.875 1.25-2.188 2.5l2.188-1.25 66.562-41.875c1.25-.625 1.563-1.25.625-2.188z" fill="#a4aaae" fill-opacity=".6"/><use xlink:href="#R" fill="#565f64"/><linearGradient id="F" x1="223.75" x2="215" y1="90.938" y2="76.875" gradientUnits="userSpaceOnUse"><stop stop-color="#02131f" offset=".1"/><stop stop-color="#02131f" stop-opacity="0" offset=".9"/></linearGradient><path d="M201.25 98.125l.313-.313-.313.313s0 .313.313.313h.312c.313-.313 9.375-5 12.5-6.876l-1.25-9.062-9.688-65.938c0-1.25-.312-2.188-.937-2.813l4.688 70c0 9.063-5.938 14.376-5.938 14.376z" fill="url(#F)"/><linearGradient id="G" x1="200" x2="186.875" y1="113.75" y2="117.5" gradientUnits="userSpaceOnUse"><stop stop-color="#02131f" offset=".2"/><stop stop-color="#02131f" stop-opacity="0" offset=".9"/></linearGradient><use xlink:href="#R" fill="url(#G)" fill-opacity=".8"/><linearGradient id="H" x1="165" x2="163.125" y1="130.938" y2="126.25" gradientUnits="userSpaceOnUse"><stop stop-color="#02131f" offset="0"/><stop stop-color="#02131f" offset=".1"/><stop stop-color="#02131f" stop-opacity="0" offset="1"/></linearGradient><path d="M129.06 145.3l70.625-28.438-.625-13.75c-1.25 3.75-3.438 7.813-9.375 10.938-4.375 2.5-46.25 23.125-61.25 30.312-.938.625-2.188.938-2.813 1.25 1.25.625 2.188.313 3.438-.313z" fill="url(#H)" opacity=".8"/><linearGradient id="I" x1="35.6" x2="32.2" y1="17.2" y2="17.6" gradientUnits="userSpaceOnUse"><stop stop-color="#02131f" offset=".3"/><stop stop-color="#02131f" stop-opacity="0" offset=".8"/></linearGradient><use transform="matrix(3.125 0 0 3.125 100 0)" fill="url(#I)" xlink:href="#Q"/><linearGradient id="J" x1="35.7" x2="33.4" y1="17.1" y2="17.4" gradientUnits="userSpaceOnUse"><stop stop-color="#27343c" offset=".4"/><stop stop-color="#3b474e" stop-opacity="0" offset="1"/></linearGradient><use transform="matrix(3.125 0 0 3.125 100 0)" fill="url(#J)" xlink:href="#Q"/><linearGradient id="K" x1="98.75" x2="185.938" y1="102.813" y2="153.125" gradientUnits="userSpaceOnUse"><stop stop-color="#24303a" stop-opacity="0" offset="0"/><stop stop-color="#25323b" stop-opacity="0" offset="0"/><stop stop-color="#27343c" offset=".1"/></linearGradient><path d="M115.94 138.75c-2.188-5-14.688-29.375-.938-76.25H109.7c-2.813 9.375-5 15-6.25 23.438 0 0-.625 3.125-.938 6.563s-.312 5.312-.312 7.5c0 18.75 4.688 29.687 4.688 29.687 5 15.626 13.75 29.69 25.624 40.313 10.312 9.062 26.25 15.937 39.375 18.437-2.187-.312-39.688-16.25-55.938-49.688z" fill="url(#K)"/><linearGradient id="L" x1="200" x2="200" y1="116.875" y2="101.875" gradientUnits="userSpaceOnUse"><stop stop-color="#a5abaf" offset=".3"/><stop stop-color="#a5abaf" stop-opacity="0" offset="1"/></linearGradient><path d="M201.25 101.88h-2.813c.313 0 .625 0 .625.313l.625 14.374H200l.625-14.374c0-.313.313-.626.625-.313z" fill="url(#L)"/><linearGradient id="M" x1="249.063" x2="249.063" y1="7.187" y2="197.813" gradientUnits="userSpaceOnUse"><stop stop-color="#dee0dd" offset="0"/><stop stop-color="#c5c9c7" offset="0"/><stop stop-color="#9ea4a5" offset="0"/><stop stop-color="#82898c" offset="0"/><stop stop-color="#71797d" offset="0"/><stop stop-color="#6b7378" offset="0"/><stop stop-color="#333f47" offset=".2"/><stop stop-color="#27343c" offset=".5"/><stop stop-color="#333f47" offset=".8"/><stop stop-color="#434d54" offset="1"/></linearGradient><path d="M231.25 7.188C264.062 19.688 295 54.062 295 97.5c0 52.5-41.875 95.313-95 95.313v5c53.125 0 97.812-43.75 97.812-97.813 0-43.124-27.5-79.374-66.562-92.81z" fill="url(#M)"/><linearGradient id="N" x1="200.313" x2="200.313" y1="2.188" y2="2.188" gradientUnits="userSpaceOnUse"><stop stop-color="#dee0dd" offset="0"/><stop stop-color="#c5c9c7" offset="0"/><stop stop-color="#9ea4a5" offset="0"/><stop stop-color="#82898c" offset="0"/><stop stop-color="#71797d" offset="0"/><stop stop-color="#6b7378" offset="0"/><stop stop-color="#333f47" offset=".2"/><stop stop-color="#27343c" offset=".5"/><stop stop-color="#333f47" offset=".8"/><stop stop-color="#434d54" offset="1"/></linearGradient><path d="M200.94 2.188h-.938z" fill="url(#N)"/><linearGradient id="O" x1="279.063" x2="236.875" y1="25.313" y2="87.188" gradientUnits="userSpaceOnUse"><stop stop-color="#27343c" offset=".7"/><stop stop-color="#2b373f" offset=".7"/><stop stop-color="#36424a" offset=".7"/><stop stop-color="#49545b" offset=".7"/><stop stop-color="#646d73" stop-opacity="0" offset=".8"/><stop stop-color="#868d92" stop-opacity="0" offset=".8"/><stop stop-color="#b0b5b8" stop-opacity="0" offset=".8"/><stop stop-color="#e1e3e4" stop-opacity="0" offset=".8"/><stop stop-color="#fff" stop-opacity="0" offset=".8"/></linearGradient><path d="M283.75 63.125C261.875 12.813 212.5 10 209.688 9.687h-.313c37.812 6.875 61.875 31.562 70.312 57.5v.313c3.75 10 5.625 20.624 5.938 32.188.313 10.937-2.188 23.124-6.875 34.374-.313 1.563-.625 3.438-.938 3.438h5c15-28.125 8.438-56.562.938-74.375z" fill="url(#O)"/><use transform="matrix(3.125 0 0 3.125 100 0)" fill="#fbfbfb" xlink:href="#P"/><path d="M124.7 140l63.75-45.938c3.438 1.875 9.063 4.375 9.688 4.375.625.313.625-.313.625-.313l-7.813-6.562c-.938-.625-1.25-1.563-1.25-2.5l7.5-75.312c-.313.313-.313.938-.625 1.25-.313.625-.313.938-.313 1.563l-10.938 75.31-60 47.19c-.312.312-.624.625-.624.937z" fill="#333f47"/><defs><path id="P" d="M2.2 32.1C2.2 15.7 15.5 2.2 32 2.2s29.8 13.4 29.8 29.9c0 16.4-13.3 29.7-29.8 29.7S2.2 48.5 2.2 32.1zm9.3-20.6c-5.3 5.3-8.6 12.6-8.6 20.6s3.3 15.3 8.5 20.5c5.3 5.2 12.6 8.5 20.6 8.5s15.3-3.2 20.5-8.5c5.3-5.2 8.5-12.5 8.5-20.5s-3.3-15.3-8.5-20.6S40 2.9 32 2.9s-15.3 3.3-20.5 8.6z"/><path id="Q" d="M32.5 31.3l-.1.1s0 .2.2.1c.1-.1 3-1.6 4-2.2l-3.5-24c-.1-.9-.5-1.3-1.2-1.6l.4 27.8z"/><path id="R" d="M199.06 102.5c0-.313-.313-.625-.625-.313L122.8 145c1.875 1.25 3.75 1.562 6.25.625l70.625-28.438z"/></defs></svg>