<svg xmlns="http://www.w3.org/2000/svg" width="400" height="200" viewBox="0 0 105.83 52.917" ><path d="M52.906 49.182c-12.418 0-22.72-10.3-22.72-22.72a22.294 22.294 0 0 1 .084-1.918l19.007 1.187-8.223 5.68a.43.43 0 0 0-.185.353c0 .25.194.43.43.43h33.566C72.285 41.898 63.34 49.18 52.898 49.18m0-45.435c12.418 0 22.72 10.3 22.72 22.72a22.132 22.132 0 0 1-.083 1.904l-19-1.207 8.24-5.646a.4.4 0 0 0 .185-.354.423.423 0 0 0-.429-.431H30.938c2.582-9.7 11.526-16.985 21.968-16.985M85.487 29l-6.214-.395a26.818 26.818 0 0 0 .086-2.142C79.36 11.844 67.516 0 52.906 0c-12.64 0-23.2 8.868-25.827 20.72h-4.88a1.02 1.02 0 0 0-.788.374l-1.453 2.03a.497.497 0 0 0 .391.802l6.2.387c-.057.7-.087 1.427-.087 2.152 0 14.62 11.843 26.452 26.452 26.452 12.64 0 23.2-8.867 25.828-20.72h4.905a.987.987 0 0 0 .786-.387l1.454-2.006a.497.497 0 0 0-.391-.801" fill="#1a171b"/></svg>