<svg xmlns="http://www.w3.org/2000/svg" fill="#33302e" viewBox="0 0 400 200" ><path d="M253.53 172.2v10.945h-34.72v-3.02c0-4.78.755-7.925 6.3-7.925zm-30.57-6.793c-9.184 0-13.335 4.906-13.335 12.58v21.89h9.184v-10.064h34.72v10.064h9.184v-34.47zm50.824 0v6.793h21.512v27.802h9.184V172.2h21.51v-6.793zm-122.78 21.26c0 4.78 1.006 6.54 6.3 6.54h38.118v6.794h-40.256c-9.183 0-13.335-4.152-13.335-11.825v-22.644h53.59v6.793h-44.408v6.793h42.647v6.542h-42.647zm-65.29-9.3c-2.768-.25-3.27-1.258-3.27-2.893 0-1.5.88-2.516 3.018-2.516h42.018v-6.668H84.33c-6.164 0-10.316 2.4-10.316 9.184 0 6.92 3.145 9.184 10.2 9.813l34.092 2.893c2.642.252 3.397 1.132 3.397 3.02 0 1.76-.755 2.893-3.145 2.893H75.775v6.793h43.527c7.548 0 10.82-3.02 10.82-10.064 0-6.416-3.02-9.058-10.316-9.687zm40.885-129.83l.63-23.022c.252-8.68 2.14-13.964 5.66-17.235 4.906-4.403 10.693-5.4 24.53-6.164 31.954-1.76 64.536-1.5 105.42 1.384 4.277.25 5.913 1.132 6.668 1.635 1.76 1.258 2.012 2.642 2.516 9.813l1.132 21.26c-14.1-.755-37.992-1.887-58.75-2.14s-39.5.126-41.765.378c-4.53.63-6.668 2.767-7.297 3.648l108.06 20.002v15.725zm-.126 7.674l146.8 27.3-.63 23.9c-.25 8.68-2.138 13.964-5.66 17.235-4.907 4.403-10.694 5.4-24.532 6.165-31.954 1.76-64.536 1.5-105.42-1.384-4.277-.252-5.913-1.132-6.667-1.636-1.762-1.258-2.013-2.64-2.516-9.812-.378-4.906-1.007-19.122-1.258-23.902 18.996 1.258 48.056 2.264 71.707 2.264l25.538.126c3.27 0 7.548-.88 9.686-4.277L126.47 72.94z"/></svg>