<svg xmlns="http://www.w3.org/2000/svg" viewBox="0 0 400 200" ><path d="M124.6.608l3.067 3.5c.173.203.333.275.607.275h6.438c.275 0 .434-.072.608-.274l3.067-3.5c.26-.304.173-.608-.275-.608h-4.34a.7.7 0 0 0-.608.304L131.848 2.2h-.7L129.823.304C129.65.1 129.5 0 129.186 0h-4.31c-.45 0-.55.304-.275.608m56.8 17.6v.333c0 11.76 1.925 12.47 16.045 12.47s16.044-.708 16.044-12.514v-.303c0-11.76-1.924-12.47-16.044-12.47-14.12.014-16.044.723-16.044 12.485m-1.432 11.69L166.554 16.78l12.615-9.94c.376-.275.23-.608-.232-.608h-8.217c-.23 0-.405.072-.608.232L157.237 16.75v-10c0-.333-.173-.506-.506-.506h-6.264c-.333 0-.506.173-.506.506v23.262c0 .333.173.506.506.506h6.264c.333 0 .506-.173.506-.506v-5.86l3.805-2.995 9.23 9.1c.202.202.376.275.636.275h8.84c.434-.03.564-.333.23-.637m52.066-23.653h-13.44c-.333 0-.506.174-.506.507v23.262c0 .332.173.506.506.506h13.454c14.394 0 16.275-.71 16.275-12.036v-.203c-.015-11.327-1.895-12.036-16.29-12.036m52.094 23.653l-11.63-23.3c-.1-.26-.304-.377-.58-.377h-10.3c-.275 0-.477.102-.578.376l-11.63 23.29c-.174.377-.03.608.36.608h6.713c.26 0 .477-.1.564-.376l1.75-3.443h15.914l1.75 3.443c.1.275.304.376.58.376h6.712c.405 0 .535-.23.376-.608m-78.467-11.69v.333c0 6.814-.275 6.915-8.23 6.915s-8.232-.1-8.232-6.915v-.333c0-6.813.275-6.9 8.232-6.9 7.97-.014 8.23.087 8.23 6.9m34.995 0v.333c0 6.235-.506 6.438-8.593 6.438h-6.67V11.76h6.67c8.086 0 8.592.202 8.592 6.437m31.508 3.4h-10.792l4.962-9.808h.883zm-155.56 8.94c3.574.16 9.404.333 12.774.333 14.698 0 16.45-.03 16.45-8.014 0-6.308-1.852-6.814-9.635-7.046l-9.028-.274c-4.137-.13-4.2-.58-4.2-2.43 0-1.925.507-1.925 10.446-1.925a766.99 766.99 0 0 1 11.053.174c.332 0 .506-.174.506-.507V6.74c0-.333-.174-.506-.478-.535a250.47 250.47 0 0 0-11.935-.348c-14.423 0-16.752.275-16.752 7.726 0 6.365 1.418 7.218 10.647 7.522l8.3.275c3.877.13 3.95.608 3.95 2.054 0 1.997-.174 2.098-9.346 2.098-4.282 0-8.695-.174-12.702-.304-.333-.03-.507.13-.507.478v4.3c0 .32.174.478.478.522" fill="#141414"/><linearGradient id="A" x1="200.254" x2="199.753" y1="200.165" y2="55.125" gradientUnits="userSpaceOnUse"><stop stop-color="#99a2a7" offset="0"/><stop stop-color="#98a3a8" offset=".476"/><stop stop-color="#e6e6e6" offset=".535"/><stop stop-color="#e6e6e6" offset="1"/></linearGradient><path d="M199.75 55.393c39.914-.145 72.377 32.102 72.507 72.015.145 39.914-32.102 72.377-72.015 72.52s-72.362-32.116-72.507-72.03 32.102-72.377 72.015-72.507z" fill="url(#A)" stroke="#141414" stroke-width=".14"/><path d="M200 192.54c-17.33 0-33.635-6.74-45.888-19.01-12.253-12.253-19.01-28.557-19.01-45.888s6.756-33.635 19.01-45.888S182.67 62.746 200 62.746s33.635 6.756 45.888 19.01 19.01 28.543 19.01 45.888c0 17.33-6.756 33.62-19.01 45.888S217.345 192.54 200 192.54" fill="#141414"/><path d="M200 187.27a59.23 59.23 0 0 1-42.156-17.461c-11.27-11.255-17.46-26.228-17.46-42.156a59.23 59.23 0 0 1 17.461-42.156A59.23 59.23 0 0 1 200 68.036c15.928 0 30.9 6.192 42.17 17.46 11.27 11.255 17.46 26.228 17.46 42.156a59.23 59.23 0 0 1-17.461 42.156c-11.27 11.27-26.243 17.46-42.17 17.46" fill="#fff"/><linearGradient id="B" x1="154.301" x2="250.366" y1="170.465" y2="82.573" gradientUnits="userSpaceOnUse"><stop stop-color="#151313" offset="0"/><stop stop-color="#151313" offset=".085"/><stop stop-color="#f8f1f1" offset=".128"/><stop stop-color="#151313" offset=".229"/><stop stop-color="#141414" offset=".304"/><stop stop-color="#f8f1f1" offset=".382"/><stop stop-color="#151313" offset=".45"/><stop stop-color="#f8f1f4" offset=".565"/><stop stop-color="#141414" offset=".627"/><stop stop-color="#f8f1f1" offset=".787"/><stop stop-color="#f8f1f2" offset="1"/></linearGradient><path d="M245.26 156.3a30.444 30.444 0 0 0-16.015-7.87 1.435 1.435 0 0 0-1.635 1.186c-.014.072-.014.145-.014.217v2.2c0 .65-.507 1.388-1.158 1.388h-1.432c-1.692-.03-1.996-2.097-1.663-3.327 3.602-12.904 4.484-20.73 4.44-26.43-.042-6.062-.202-12.094-2.92-20.08-2.633-7.682-5.035-15.22-17.736-26.72a4.53 4.53 0 0 0-2.894-1.244 47.662 47.662 0 0 0-3.544-.13 53.08 53.08 0 0 0-15.176 2.213c-1.794.55-1.533 1.794-.535 2.647 4.803 4.11 11.298 10.27 15.783 17.968-2.836.275-5.006-1.302-6.843-3.052-6-5.7-12.24-9.78-17.2-12.557-.868-.478-1.72-.68-2.575-.188-5.468 3.182-9.143 6.163-13.483 11.197-.738.853-.26 1.52.463 1.9 4.745 2.517 12.166 7.3 18.98 13.482-1.39 1.172-3.588.782-6.785-.882-6.134-3.226-12.022-5.078-16.52-6.235-.97-.246-1.996.03-2.488.882-2.88 5.006-4.86 10.995-5.8 17.056-.174 1.172.607 2.2 1.78 2.402 10.488 1.837 29.165 6.756 32.275 28.282.275 1.88-1.447 3.544-3.704 2.488l-9.446-4.427c-.333-.16-.7-.3-1.07-.3h-14.844c-2.112 0-2.98 2.026-1.606 3.59 3.574 4.108 6.843 8.55 9.65 13.252.246.42.535.578 1.012.578h6.482c.434 0 .824-.1 1.2-.333l6.12-3.587c.376-.232.752-.217 1.2-.217h48.854c.65 0 1.187.42 1.187 1.085v2.4a1.43 1.43 0 0 0 1.649 1.403 30.394 30.394 0 0 0 16.015-7.87 1.647 1.647 0 0 0 .087-2.329c-.03 0-.058-.03-.087-.058" fill="url(#B)" stroke="#141414" stroke-width=".165"/><path d="M208.86 149.27c-4.817 0-8.71-3.892-8.71-8.694a8.708 8.708 0 1 1 17.418 0c0 4.788-3.906 8.694-8.71 8.694zm32 8.232c-3.298-2.69-6.785-4.442-11.024-5.3-.376-.072-.564.072-.564.463v.217c0 1.042-1.042 2.257-2.083 2.257h-2.75c-2.314 0-4.397-1.9-3.53-4.976 9.94-35.443-1.172-57.36-15.176-69.628-3.805-3.328-4.152-3.516-7.942-3.37-2.995.116-6.496.477-9.46 1.2-.58.145-1.07.608-.304 1.245 7.2 6.06 16.8 16.506 21.4 32.767.16.564-.173.52-.607.55-4.123.245-5.512-2.272-6.8-3.878-9.345-11.63-19.804-18.7-27.645-23.335-.78-.463-.91-.463-1.505-.115-3.153 1.822-6.683 4.716-9.17 7.363-.52.564-.39.825.188 1.13 7.088 3.804 17.866 11.284 27.892 23.97.622.782.665 1.143.318 1.36-1.924 1.143-5.15 1.13-8.666-1.056-9.548-5.96-19.255-10.17-26.836-12.37-.8-.23-.954-.188-1.287.507-1.852 3.89-3.863 8.94-4.6 13.324-.087.578-.145.622.4.723 20.9 4.24 32.347 15.696 33.65 31.017.232 2.662-2.778 5.222-5.772 4.267-3.24-1.027-6.394-2.184-9.65-3.21a3.007 3.007 0 0 0-1.07-.16h-13.483c-.593 0-.955.377-.362 1.13 3.386 4.296 5.367 6.726 7.754 10.733a1.02 1.02 0 0 0 1.013.579h4.962a3.295 3.295 0 0 0 1.794-.492l5.382-3.096c.578-.333 1.056-.535 1.72-.535h50.098c1.042 0 2.112 1.215 2.112 2.257v.36c0 .4.188.536.565.463 4.238-.882 7.7-2.908 11.024-5.598.303-.26.303-.507.014-.753" fill="#42bd3b"/><linearGradient id="C" x1="207.354" x2="216.587" y1="139.886" y2="151.961" gradientUnits="userSpaceOnUse"><stop stop-color="#151313" offset="0"/><stop stop-color="#ccc4c4" offset=".163"/><stop stop-color="#b7acad" offset=".496"/><stop stop-color="#151313" offset="1"/></linearGradient><path d="M217.93 139.56a9.83 9.83 0 0 1-8.304 11.139c-5.367.78-10.358-2.922-11.14-8.3a9.83 9.83 0 0 1 8.29-11.138c5.38-.782 10.373 2.922 11.154 8.29" fill="url(#C)"/><linearGradient id="D" x1="211.55" x2="197.776" y1="140.424" y2="146.015" gradientUnits="userSpaceOnUse"><stop stop-color="#151313" offset="0"/><stop stop-color="#ccc4c4" offset=".25"/><stop stop-color="#b7acad" offset=".5"/><stop stop-color="#151313" offset="1"/></linearGradient><path d="M209.8 131.3l-2.95 19.43a9.821 9.821 0 0 0 10.344-5.729c2.213-4.962-.015-10.75-4.962-12.962a10.047 10.047 0 0 0-2.43-.738z" fill="url(#D)"/><path d="M216.52 140.73c0 3.631-2.951 6.582-6.582 6.582s-6.583-2.95-6.583-6.582a6.57 6.57 0 016.583-6.582 6.588 6.588 0 016.582 6.582" fill="#fff" stroke="#141414" stroke-width=".165"/></svg>